<mxfile host="" modified="2021-02-23T17:04:49.991Z" agent="5.0 (Windows NT 6.2; Win64; x64) AppleWebKit/537.36 (KHTML, like Gecko) Chrome/84.0.4147.105 Safari/537.36" version="13.7.9" etag="ZuRctIScc2ZxfXI8Dd0f" type="embed"><diagram id="53WAX82lxK2SbMfejBCa" name="Page-1"><mxGraphModel dx="598" dy="431" grid="1" gridSize="10" guides="1" tooltips="1" connect="1" arrows="1" fold="1" page="1" pageScale="1" pageWidth="850" pageHeight="1100" math="0" shadow="0"><root><mxCell id="0"/><mxCell id="1" parent="0"/><mxCell id="4" value="start" style="ellipse;whiteSpace=wrap;html=1;" vertex="1" parent="1"><mxGeometry x="120" y="140" width="120" height="60" as="geometry"/></mxCell><mxCell id="5" style="edgeStyle=orthogonalEdgeStyle;rounded=0;orthogonalLoop=1;jettySize=auto;html=1;exitX=0.5;exitY=1;exitDx=0;exitDy=0;" edge="1" parent="1" source="4" target="4"><mxGeometry relative="1" as="geometry"/></mxCell><mxCell id="6" value="соединяемся с бд" style="rounded=0;whiteSpace=wrap;html=1;" vertex="1" parent="1"><mxGeometry x="320" y="140" width="120" height="60" as="geometry"/></mxCell><mxCell id="7" value="let n = номер последней спарсеной страницы" style="rounded=0;whiteSpace=wrap;html=1;" vertex="1" parent="1"><mxGeometry x="320" y="240" width="120" height="60" as="geometry"/></mxCell><mxCell id="8" value="fetch-запрос&amp;nbsp; &amp;nbsp;страницы n+1" style="rounded=0;whiteSpace=wrap;html=1;" vertex="1" parent="1"><mxGeometry x="320" y="320" width="120" height="60" as="geometry"/></mxCell><mxCell id="9" value="записываем результат в бд&amp;nbsp;" style="rounded=0;whiteSpace=wrap;html=1;" vertex="1" parent="1"><mxGeometry x="480" y="400" width="120" height="60" as="geometry"/></mxCell><mxCell id="10" value="есть результат" style="rhombus;whiteSpace=wrap;html=1;" vertex="1" parent="1"><mxGeometry x="320" y="400" width="120" height="60" as="geometry"/></mxCell><mxCell id="12" value="" style="endArrow=classic;html=1;exitX=1;exitY=0.5;exitDx=0;exitDy=0;entryX=0;entryY=0.5;entryDx=0;entryDy=0;" edge="1" parent="1" source="10" target="9"><mxGeometry relative="1" as="geometry"><mxPoint x="340" y="380" as="sourcePoint"/><mxPoint x="440" y="380" as="targetPoint"/></mxGeometry></mxCell><mxCell id="13" value="да" style="edgeLabel;resizable=0;html=1;align=center;verticalAlign=middle;" connectable="0" vertex="1" parent="12"><mxGeometry relative="1" as="geometry"/></mxCell><mxCell id="14" value="" style="endArrow=classic;html=1;exitX=1;exitY=0.5;exitDx=0;exitDy=0;entryX=0;entryY=0.5;entryDx=0;entryDy=0;" edge="1" parent="1" source="4" target="6"><mxGeometry width="50" height="50" relative="1" as="geometry"><mxPoint x="360" y="300" as="sourcePoint"/><mxPoint x="410" y="250" as="targetPoint"/></mxGeometry></mxCell><mxCell id="15" value="" style="endArrow=classic;html=1;exitX=0.5;exitY=1;exitDx=0;exitDy=0;entryX=0.5;entryY=0;entryDx=0;entryDy=0;" edge="1" parent="1" source="6" target="7"><mxGeometry width="50" height="50" relative="1" as="geometry"><mxPoint x="390" y="110" as="sourcePoint"/><mxPoint x="390" y="150" as="targetPoint"/></mxGeometry></mxCell><mxCell id="16" value="" style="endArrow=classic;html=1;exitX=0.5;exitY=1;exitDx=0;exitDy=0;entryX=0.5;entryY=0;entryDx=0;entryDy=0;" edge="1" parent="1" source="7" target="8"><mxGeometry width="50" height="50" relative="1" as="geometry"><mxPoint x="390" y="210" as="sourcePoint"/><mxPoint x="380" y="310" as="targetPoint"/></mxGeometry></mxCell><mxCell id="17" value="" style="endArrow=classic;html=1;exitX=0.5;exitY=1;exitDx=0;exitDy=0;entryX=0.5;entryY=0;entryDx=0;entryDy=0;" edge="1" parent="1" source="8" target="10"><mxGeometry width="50" height="50" relative="1" as="geometry"><mxPoint x="360" y="400" as="sourcePoint"/><mxPoint x="410" y="350" as="targetPoint"/></mxGeometry></mxCell><mxCell id="18" value="" style="endArrow=classic;html=1;exitX=0.5;exitY=0;exitDx=0;exitDy=0;" edge="1" parent="1" source="9"><mxGeometry width="50" height="50" relative="1" as="geometry"><mxPoint x="360" y="400" as="sourcePoint"/><mxPoint x="380" y="220" as="targetPoint"/><Array as="points"><mxPoint x="540" y="220"/></Array></mxGeometry></mxCell><mxCell id="19" value="нет" style="endArrow=classic;html=1;exitX=0;exitY=0.5;exitDx=0;exitDy=0;" edge="1" parent="1" source="10" target="21"><mxGeometry relative="1" as="geometry"><mxPoint x="340" y="280" as="sourcePoint"/><mxPoint x="240" y="430" as="targetPoint"/></mxGeometry></mxCell><mxCell id="21" value="end" style="ellipse;whiteSpace=wrap;html=1;" vertex="1" parent="1"><mxGeometry x="120" y="400" width="120" height="60" as="geometry"/></mxCell></root></mxGraphModel></diagram></mxfile>